<mxfile host="app.diagrams.net" modified="2023-05-24T17:41:44.528Z" agent="Mozilla/5.0 (Windows NT 10.0; Win64; x64; rv:109.0) Gecko/20100101 Firefox/113.0" etag="ETIuIbQjj2-XNyn8NnnG" version="21.3.3" type="device">
  <diagram id="C5RBs43oDa-KdzZeNtuy" name="Page-1">
    <mxGraphModel dx="947" dy="1656" grid="1" gridSize="10" guides="1" tooltips="1" connect="1" arrows="1" fold="1" page="1" pageScale="1" pageWidth="827" pageHeight="1169" math="0" shadow="0">
      <root>
        <mxCell id="WIyWlLk6GJQsqaUBKTNV-0" />
        <mxCell id="WIyWlLk6GJQsqaUBKTNV-1" parent="WIyWlLk6GJQsqaUBKTNV-0" />
        <mxCell id="evPstTmDy4JiKZD8_PfO-66" value="" style="rounded=0;whiteSpace=wrap;html=1;" vertex="1" parent="WIyWlLk6GJQsqaUBKTNV-1">
          <mxGeometry x="10" y="-20" width="830" height="610" as="geometry" />
        </mxCell>
        <mxCell id="evPstTmDy4JiKZD8_PfO-0" value="Gametype" style="swimlane;fontStyle=0;childLayout=stackLayout;horizontal=1;startSize=30;horizontalStack=0;resizeParent=1;resizeParentMax=0;resizeLast=0;collapsible=1;marginBottom=0;whiteSpace=wrap;html=1;" vertex="1" parent="WIyWlLk6GJQsqaUBKTNV-1">
          <mxGeometry x="40" y="70" width="140" height="90" as="geometry" />
        </mxCell>
        <mxCell id="evPstTmDy4JiKZD8_PfO-1" value="&lt;b&gt;ID&lt;/b&gt;" style="text;strokeColor=#b85450;fillColor=#f8cecc;align=left;verticalAlign=middle;spacingLeft=4;spacingRight=4;overflow=hidden;points=[[0,0.5],[1,0.5]];portConstraint=eastwest;rotatable=0;whiteSpace=wrap;html=1;" vertex="1" parent="evPstTmDy4JiKZD8_PfO-0">
          <mxGeometry y="30" width="140" height="30" as="geometry" />
        </mxCell>
        <mxCell id="evPstTmDy4JiKZD8_PfO-2" value="Name" style="text;strokeColor=#d6b656;fillColor=#fff2cc;align=left;verticalAlign=middle;spacingLeft=4;spacingRight=4;overflow=hidden;points=[[0,0.5],[1,0.5]];portConstraint=eastwest;rotatable=0;whiteSpace=wrap;html=1;" vertex="1" parent="evPstTmDy4JiKZD8_PfO-0">
          <mxGeometry y="60" width="140" height="30" as="geometry" />
        </mxCell>
        <mxCell id="evPstTmDy4JiKZD8_PfO-4" value="Account" style="swimlane;fontStyle=0;childLayout=stackLayout;horizontal=1;startSize=30;horizontalStack=0;resizeParent=1;resizeParentMax=0;resizeLast=0;collapsible=1;marginBottom=0;whiteSpace=wrap;html=1;" vertex="1" parent="WIyWlLk6GJQsqaUBKTNV-1">
          <mxGeometry x="40" y="200" width="140" height="90" as="geometry" />
        </mxCell>
        <mxCell id="evPstTmDy4JiKZD8_PfO-5" value="&lt;b&gt;ID&lt;/b&gt;" style="text;strokeColor=#b85450;fillColor=#f8cecc;align=left;verticalAlign=middle;spacingLeft=4;spacingRight=4;overflow=hidden;points=[[0,0.5],[1,0.5]];portConstraint=eastwest;rotatable=0;whiteSpace=wrap;html=1;" vertex="1" parent="evPstTmDy4JiKZD8_PfO-4">
          <mxGeometry y="30" width="140" height="30" as="geometry" />
        </mxCell>
        <mxCell id="evPstTmDy4JiKZD8_PfO-6" value="Email" style="text;strokeColor=#d6b656;fillColor=#fff2cc;align=left;verticalAlign=middle;spacingLeft=4;spacingRight=4;overflow=hidden;points=[[0,0.5],[1,0.5]];portConstraint=eastwest;rotatable=0;whiteSpace=wrap;html=1;" vertex="1" parent="evPstTmDy4JiKZD8_PfO-4">
          <mxGeometry y="60" width="140" height="30" as="geometry" />
        </mxCell>
        <mxCell id="evPstTmDy4JiKZD8_PfO-8" value="Herotype" style="swimlane;fontStyle=0;childLayout=stackLayout;horizontal=1;startSize=30;horizontalStack=0;resizeParent=1;resizeParentMax=0;resizeLast=0;collapsible=1;marginBottom=0;whiteSpace=wrap;html=1;" vertex="1" parent="WIyWlLk6GJQsqaUBKTNV-1">
          <mxGeometry x="40" y="480" width="140" height="90" as="geometry" />
        </mxCell>
        <mxCell id="evPstTmDy4JiKZD8_PfO-9" value="&lt;b&gt;ID&lt;/b&gt;" style="text;strokeColor=#b85450;fillColor=#f8cecc;align=left;verticalAlign=middle;spacingLeft=4;spacingRight=4;overflow=hidden;points=[[0,0.5],[1,0.5]];portConstraint=eastwest;rotatable=0;whiteSpace=wrap;html=1;" vertex="1" parent="evPstTmDy4JiKZD8_PfO-8">
          <mxGeometry y="30" width="140" height="30" as="geometry" />
        </mxCell>
        <mxCell id="evPstTmDy4JiKZD8_PfO-10" value="name" style="text;strokeColor=#d6b656;fillColor=#fff2cc;align=left;verticalAlign=middle;spacingLeft=4;spacingRight=4;overflow=hidden;points=[[0,0.5],[1,0.5]];portConstraint=eastwest;rotatable=0;whiteSpace=wrap;html=1;" vertex="1" parent="evPstTmDy4JiKZD8_PfO-8">
          <mxGeometry y="60" width="140" height="30" as="geometry" />
        </mxCell>
        <mxCell id="evPstTmDy4JiKZD8_PfO-13" value="Hero" style="swimlane;fontStyle=0;childLayout=stackLayout;horizontal=1;startSize=30;horizontalStack=0;resizeParent=1;resizeParentMax=0;resizeLast=0;collapsible=1;marginBottom=0;whiteSpace=wrap;html=1;" vertex="1" parent="WIyWlLk6GJQsqaUBKTNV-1">
          <mxGeometry x="40" y="320" width="140" height="120" as="geometry" />
        </mxCell>
        <mxCell id="evPstTmDy4JiKZD8_PfO-14" value="&lt;b&gt;ID&lt;/b&gt;" style="text;strokeColor=#b85450;fillColor=#f8cecc;align=left;verticalAlign=middle;spacingLeft=4;spacingRight=4;overflow=hidden;points=[[0,0.5],[1,0.5]];portConstraint=eastwest;rotatable=0;whiteSpace=wrap;html=1;" vertex="1" parent="evPstTmDy4JiKZD8_PfO-13">
          <mxGeometry y="30" width="140" height="30" as="geometry" />
        </mxCell>
        <mxCell id="evPstTmDy4JiKZD8_PfO-15" value="&lt;u&gt;Herotype_ID&lt;/u&gt;" style="text;strokeColor=#6c8ebf;fillColor=#dae8fc;align=left;verticalAlign=middle;spacingLeft=4;spacingRight=4;overflow=hidden;points=[[0,0.5],[1,0.5]];portConstraint=eastwest;rotatable=0;whiteSpace=wrap;html=1;" vertex="1" parent="evPstTmDy4JiKZD8_PfO-13">
          <mxGeometry y="60" width="140" height="30" as="geometry" />
        </mxCell>
        <mxCell id="evPstTmDy4JiKZD8_PfO-16" value="name" style="text;strokeColor=#d6b656;fillColor=#fff2cc;align=left;verticalAlign=middle;spacingLeft=4;spacingRight=4;overflow=hidden;points=[[0,0.5],[1,0.5]];portConstraint=eastwest;rotatable=0;whiteSpace=wrap;html=1;" vertex="1" parent="evPstTmDy4JiKZD8_PfO-13">
          <mxGeometry y="90" width="140" height="30" as="geometry" />
        </mxCell>
        <mxCell id="evPstTmDy4JiKZD8_PfO-21" value="&lt;div&gt;&lt;br&gt;&lt;/div&gt;&lt;div&gt;&lt;br&gt;&lt;/div&gt;" style="text;strokeColor=none;fillColor=none;align=left;verticalAlign=middle;spacingLeft=4;spacingRight=4;overflow=hidden;points=[[0,0.5],[1,0.5]];portConstraint=eastwest;rotatable=0;whiteSpace=wrap;html=1;" vertex="1" parent="WIyWlLk6GJQsqaUBKTNV-1">
          <mxGeometry x="340" y="390" width="140" height="30" as="geometry" />
        </mxCell>
        <mxCell id="evPstTmDy4JiKZD8_PfO-22" value="Hero_Ability" style="swimlane;fontStyle=0;childLayout=stackLayout;horizontal=1;startSize=30;horizontalStack=0;resizeParent=1;resizeParentMax=0;resizeLast=0;collapsible=1;marginBottom=0;whiteSpace=wrap;html=1;" vertex="1" parent="WIyWlLk6GJQsqaUBKTNV-1">
          <mxGeometry x="260" y="70" width="140" height="150" as="geometry" />
        </mxCell>
        <mxCell id="evPstTmDy4JiKZD8_PfO-23" value="&lt;b&gt;ID&lt;/b&gt;" style="text;strokeColor=#b85450;fillColor=#f8cecc;align=left;verticalAlign=middle;spacingLeft=4;spacingRight=4;overflow=hidden;points=[[0,0.5],[1,0.5]];portConstraint=eastwest;rotatable=0;whiteSpace=wrap;html=1;" vertex="1" parent="evPstTmDy4JiKZD8_PfO-22">
          <mxGeometry y="30" width="140" height="30" as="geometry" />
        </mxCell>
        <mxCell id="evPstTmDy4JiKZD8_PfO-24" value="&lt;u&gt;Hero_ID&lt;/u&gt;" style="text;strokeColor=#6c8ebf;fillColor=#dae8fc;align=left;verticalAlign=middle;spacingLeft=4;spacingRight=4;overflow=hidden;points=[[0,0.5],[1,0.5]];portConstraint=eastwest;rotatable=0;whiteSpace=wrap;html=1;" vertex="1" parent="evPstTmDy4JiKZD8_PfO-22">
          <mxGeometry y="60" width="140" height="30" as="geometry" />
        </mxCell>
        <mxCell id="evPstTmDy4JiKZD8_PfO-26" value="&amp;nbsp;Ultimate" style="text;html=1;strokeColor=#d6b656;fillColor=#fff2cc;align=left;verticalAlign=middle;whiteSpace=wrap;rounded=0;" vertex="1" parent="evPstTmDy4JiKZD8_PfO-22">
          <mxGeometry y="90" width="140" height="30" as="geometry" />
        </mxCell>
        <mxCell id="evPstTmDy4JiKZD8_PfO-25" value="Name" style="text;strokeColor=#d6b656;fillColor=#fff2cc;align=left;verticalAlign=middle;spacingLeft=4;spacingRight=4;overflow=hidden;points=[[0,0.5],[1,0.5]];portConstraint=eastwest;rotatable=0;whiteSpace=wrap;html=1;" vertex="1" parent="evPstTmDy4JiKZD8_PfO-22">
          <mxGeometry y="120" width="140" height="30" as="geometry" />
        </mxCell>
        <mxCell id="evPstTmDy4JiKZD8_PfO-27" value="Map" style="swimlane;fontStyle=0;childLayout=stackLayout;horizontal=1;startSize=30;horizontalStack=0;resizeParent=1;resizeParentMax=0;resizeLast=0;collapsible=1;marginBottom=0;whiteSpace=wrap;html=1;" vertex="1" parent="WIyWlLk6GJQsqaUBKTNV-1">
          <mxGeometry x="260" y="250" width="140" height="120" as="geometry" />
        </mxCell>
        <mxCell id="evPstTmDy4JiKZD8_PfO-28" value="&lt;b&gt;ID&lt;/b&gt;" style="text;strokeColor=#b85450;fillColor=#f8cecc;align=left;verticalAlign=middle;spacingLeft=4;spacingRight=4;overflow=hidden;points=[[0,0.5],[1,0.5]];portConstraint=eastwest;rotatable=0;whiteSpace=wrap;html=1;" vertex="1" parent="evPstTmDy4JiKZD8_PfO-27">
          <mxGeometry y="30" width="140" height="30" as="geometry" />
        </mxCell>
        <mxCell id="evPstTmDy4JiKZD8_PfO-29" value="&lt;u&gt;Gametype_ID&lt;/u&gt;" style="text;strokeColor=#6c8ebf;fillColor=#dae8fc;align=left;verticalAlign=middle;spacingLeft=4;spacingRight=4;overflow=hidden;points=[[0,0.5],[1,0.5]];portConstraint=eastwest;rotatable=0;whiteSpace=wrap;html=1;" vertex="1" parent="evPstTmDy4JiKZD8_PfO-27">
          <mxGeometry y="60" width="140" height="30" as="geometry" />
        </mxCell>
        <mxCell id="evPstTmDy4JiKZD8_PfO-30" value="name" style="text;strokeColor=#d6b656;fillColor=#fff2cc;align=left;verticalAlign=middle;spacingLeft=4;spacingRight=4;overflow=hidden;points=[[0,0.5],[1,0.5]];portConstraint=eastwest;rotatable=0;whiteSpace=wrap;html=1;" vertex="1" parent="evPstTmDy4JiKZD8_PfO-27">
          <mxGeometry y="90" width="140" height="30" as="geometry" />
        </mxCell>
        <mxCell id="evPstTmDy4JiKZD8_PfO-32" value="Player" style="swimlane;fontStyle=0;childLayout=stackLayout;horizontal=1;startSize=30;horizontalStack=0;resizeParent=1;resizeParentMax=0;resizeLast=0;collapsible=1;marginBottom=0;whiteSpace=wrap;html=1;" vertex="1" parent="WIyWlLk6GJQsqaUBKTNV-1">
          <mxGeometry x="260" y="400" width="140" height="120" as="geometry" />
        </mxCell>
        <mxCell id="evPstTmDy4JiKZD8_PfO-33" value="&lt;b&gt;ID&lt;/b&gt;" style="text;strokeColor=#b85450;fillColor=#f8cecc;align=left;verticalAlign=middle;spacingLeft=4;spacingRight=4;overflow=hidden;points=[[0,0.5],[1,0.5]];portConstraint=eastwest;rotatable=0;whiteSpace=wrap;html=1;" vertex="1" parent="evPstTmDy4JiKZD8_PfO-32">
          <mxGeometry y="30" width="140" height="30" as="geometry" />
        </mxCell>
        <mxCell id="evPstTmDy4JiKZD8_PfO-34" value="&lt;u&gt;Account_ID&lt;/u&gt;" style="text;strokeColor=#6c8ebf;fillColor=#dae8fc;align=left;verticalAlign=middle;spacingLeft=4;spacingRight=4;overflow=hidden;points=[[0,0.5],[1,0.5]];portConstraint=eastwest;rotatable=0;whiteSpace=wrap;html=1;" vertex="1" parent="evPstTmDy4JiKZD8_PfO-32">
          <mxGeometry y="60" width="140" height="30" as="geometry" />
        </mxCell>
        <mxCell id="evPstTmDy4JiKZD8_PfO-35" value="name" style="text;strokeColor=#d6b656;fillColor=#fff2cc;align=left;verticalAlign=middle;spacingLeft=4;spacingRight=4;overflow=hidden;points=[[0,0.5],[1,0.5]];portConstraint=eastwest;rotatable=0;whiteSpace=wrap;html=1;" vertex="1" parent="evPstTmDy4JiKZD8_PfO-32">
          <mxGeometry y="90" width="140" height="30" as="geometry" />
        </mxCell>
        <mxCell id="evPstTmDy4JiKZD8_PfO-36" value="Selectedhero" style="swimlane;fontStyle=0;childLayout=stackLayout;horizontal=1;startSize=30;horizontalStack=0;resizeParent=1;resizeParentMax=0;resizeLast=0;collapsible=1;marginBottom=0;whiteSpace=wrap;html=1;" vertex="1" parent="WIyWlLk6GJQsqaUBKTNV-1">
          <mxGeometry x="480" y="70" width="140" height="150" as="geometry" />
        </mxCell>
        <mxCell id="evPstTmDy4JiKZD8_PfO-37" value="&lt;b&gt;Player_ID&lt;/b&gt;" style="text;strokeColor=#b85450;fillColor=#f8cecc;align=left;verticalAlign=middle;spacingLeft=4;spacingRight=4;overflow=hidden;points=[[0,0.5],[1,0.5]];portConstraint=eastwest;rotatable=0;whiteSpace=wrap;html=1;" vertex="1" parent="evPstTmDy4JiKZD8_PfO-36">
          <mxGeometry y="30" width="140" height="30" as="geometry" />
        </mxCell>
        <mxCell id="evPstTmDy4JiKZD8_PfO-38" value="&lt;b&gt;Team_ID&lt;/b&gt;" style="text;strokeColor=#b85450;fillColor=#f8cecc;align=left;verticalAlign=middle;spacingLeft=4;spacingRight=4;overflow=hidden;points=[[0,0.5],[1,0.5]];portConstraint=eastwest;rotatable=0;whiteSpace=wrap;html=1;" vertex="1" parent="evPstTmDy4JiKZD8_PfO-36">
          <mxGeometry y="60" width="140" height="30" as="geometry" />
        </mxCell>
        <mxCell id="evPstTmDy4JiKZD8_PfO-39" value="&lt;b&gt;Hero_ID&lt;/b&gt;" style="text;strokeColor=#b85450;fillColor=#f8cecc;align=left;verticalAlign=middle;spacingLeft=4;spacingRight=4;overflow=hidden;points=[[0,0.5],[1,0.5]];portConstraint=eastwest;rotatable=0;whiteSpace=wrap;html=1;" vertex="1" parent="evPstTmDy4JiKZD8_PfO-36">
          <mxGeometry y="90" width="140" height="30" as="geometry" />
        </mxCell>
        <mxCell id="evPstTmDy4JiKZD8_PfO-40" value="&lt;div align=&quot;left&quot;&gt;&lt;u&gt;&amp;nbsp;Skin_ID&lt;/u&gt;&lt;/div&gt;" style="text;html=1;strokeColor=#6c8ebf;fillColor=#dae8fc;align=left;verticalAlign=middle;whiteSpace=wrap;rounded=0;" vertex="1" parent="evPstTmDy4JiKZD8_PfO-36">
          <mxGeometry y="120" width="140" height="30" as="geometry" />
        </mxCell>
        <mxCell id="evPstTmDy4JiKZD8_PfO-42" value="Game" style="swimlane;fontStyle=0;childLayout=stackLayout;horizontal=1;startSize=30;horizontalStack=0;resizeParent=1;resizeParentMax=0;resizeLast=0;collapsible=1;marginBottom=0;whiteSpace=wrap;html=1;" vertex="1" parent="WIyWlLk6GJQsqaUBKTNV-1">
          <mxGeometry x="480" y="250" width="140" height="120" as="geometry" />
        </mxCell>
        <mxCell id="evPstTmDy4JiKZD8_PfO-43" value="&lt;b&gt;ID&lt;/b&gt;" style="text;strokeColor=#b85450;fillColor=#f8cecc;align=left;verticalAlign=middle;spacingLeft=4;spacingRight=4;overflow=hidden;points=[[0,0.5],[1,0.5]];portConstraint=eastwest;rotatable=0;whiteSpace=wrap;html=1;" vertex="1" parent="evPstTmDy4JiKZD8_PfO-42">
          <mxGeometry y="30" width="140" height="30" as="geometry" />
        </mxCell>
        <mxCell id="evPstTmDy4JiKZD8_PfO-44" value="&lt;u&gt;Map_ID&lt;/u&gt;" style="text;strokeColor=#6c8ebf;fillColor=#dae8fc;align=left;verticalAlign=middle;spacingLeft=4;spacingRight=4;overflow=hidden;points=[[0,0.5],[1,0.5]];portConstraint=eastwest;rotatable=0;whiteSpace=wrap;html=1;" vertex="1" parent="evPstTmDy4JiKZD8_PfO-42">
          <mxGeometry y="60" width="140" height="30" as="geometry" />
        </mxCell>
        <mxCell id="evPstTmDy4JiKZD8_PfO-45" value="&lt;u&gt;Gametype_ID&lt;/u&gt;" style="text;strokeColor=#6c8ebf;fillColor=#dae8fc;align=left;verticalAlign=middle;spacingLeft=4;spacingRight=4;overflow=hidden;points=[[0,0.5],[1,0.5]];portConstraint=eastwest;rotatable=0;whiteSpace=wrap;html=1;" vertex="1" parent="evPstTmDy4JiKZD8_PfO-42">
          <mxGeometry y="90" width="140" height="30" as="geometry" />
        </mxCell>
        <mxCell id="evPstTmDy4JiKZD8_PfO-46" value="Team" style="swimlane;fontStyle=0;childLayout=stackLayout;horizontal=1;startSize=30;horizontalStack=0;resizeParent=1;resizeParentMax=0;resizeLast=0;collapsible=1;marginBottom=0;whiteSpace=wrap;html=1;" vertex="1" parent="WIyWlLk6GJQsqaUBKTNV-1">
          <mxGeometry x="670" y="70" width="140" height="90" as="geometry" />
        </mxCell>
        <mxCell id="evPstTmDy4JiKZD8_PfO-47" value="&lt;b&gt;ID&lt;/b&gt;" style="text;strokeColor=#b85450;fillColor=#f8cecc;align=left;verticalAlign=middle;spacingLeft=4;spacingRight=4;overflow=hidden;points=[[0,0.5],[1,0.5]];portConstraint=eastwest;rotatable=0;whiteSpace=wrap;html=1;" vertex="1" parent="evPstTmDy4JiKZD8_PfO-46">
          <mxGeometry y="30" width="140" height="30" as="geometry" />
        </mxCell>
        <mxCell id="evPstTmDy4JiKZD8_PfO-48" value="&lt;u&gt;Game_ID&lt;/u&gt;" style="text;strokeColor=#6c8ebf;fillColor=#dae8fc;align=left;verticalAlign=middle;spacingLeft=4;spacingRight=4;overflow=hidden;points=[[0,0.5],[1,0.5]];portConstraint=eastwest;rotatable=0;whiteSpace=wrap;html=1;" vertex="1" parent="evPstTmDy4JiKZD8_PfO-46">
          <mxGeometry y="60" width="140" height="30" as="geometry" />
        </mxCell>
        <mxCell id="evPstTmDy4JiKZD8_PfO-50" value="Skin" style="swimlane;fontStyle=0;childLayout=stackLayout;horizontal=1;startSize=30;horizontalStack=0;resizeParent=1;resizeParentMax=0;resizeLast=0;collapsible=1;marginBottom=0;whiteSpace=wrap;html=1;" vertex="1" parent="WIyWlLk6GJQsqaUBKTNV-1">
          <mxGeometry x="480" y="400" width="140" height="120" as="geometry" />
        </mxCell>
        <mxCell id="evPstTmDy4JiKZD8_PfO-51" value="&lt;b&gt;ID&lt;/b&gt;" style="text;strokeColor=#b85450;fillColor=#f8cecc;align=left;verticalAlign=middle;spacingLeft=4;spacingRight=4;overflow=hidden;points=[[0,0.5],[1,0.5]];portConstraint=eastwest;rotatable=0;whiteSpace=wrap;html=1;" vertex="1" parent="evPstTmDy4JiKZD8_PfO-50">
          <mxGeometry y="30" width="140" height="30" as="geometry" />
        </mxCell>
        <mxCell id="evPstTmDy4JiKZD8_PfO-52" value="&lt;u&gt;Hero_ID&lt;/u&gt;" style="text;strokeColor=#6c8ebf;fillColor=#dae8fc;align=left;verticalAlign=middle;spacingLeft=4;spacingRight=4;overflow=hidden;points=[[0,0.5],[1,0.5]];portConstraint=eastwest;rotatable=0;whiteSpace=wrap;html=1;" vertex="1" parent="evPstTmDy4JiKZD8_PfO-50">
          <mxGeometry y="60" width="140" height="30" as="geometry" />
        </mxCell>
        <mxCell id="evPstTmDy4JiKZD8_PfO-54" value="&lt;div align=&quot;left&quot;&gt;&amp;nbsp;filename&lt;/div&gt;" style="text;html=1;strokeColor=#d6b656;fillColor=#fff2cc;align=left;verticalAlign=middle;whiteSpace=wrap;rounded=0;" vertex="1" parent="evPstTmDy4JiKZD8_PfO-50">
          <mxGeometry y="90" width="140" height="30" as="geometry" />
        </mxCell>
        <mxCell id="evPstTmDy4JiKZD8_PfO-55" style="edgeStyle=orthogonalEdgeStyle;rounded=0;orthogonalLoop=1;jettySize=auto;html=1;entryX=0;entryY=0.5;entryDx=0;entryDy=0;" edge="1" parent="WIyWlLk6GJQsqaUBKTNV-1" source="evPstTmDy4JiKZD8_PfO-1" target="evPstTmDy4JiKZD8_PfO-29">
          <mxGeometry relative="1" as="geometry" />
        </mxCell>
        <mxCell id="evPstTmDy4JiKZD8_PfO-56" value="" style="edgeStyle=orthogonalEdgeStyle;rounded=0;orthogonalLoop=1;jettySize=auto;html=1;entryX=1;entryY=0.5;entryDx=0;entryDy=0;" edge="1" parent="WIyWlLk6GJQsqaUBKTNV-1" source="evPstTmDy4JiKZD8_PfO-15" target="evPstTmDy4JiKZD8_PfO-9">
          <mxGeometry relative="1" as="geometry" />
        </mxCell>
        <mxCell id="evPstTmDy4JiKZD8_PfO-57" style="edgeStyle=orthogonalEdgeStyle;rounded=0;orthogonalLoop=1;jettySize=auto;html=1;exitX=0;exitY=0.5;exitDx=0;exitDy=0;entryX=1;entryY=0.5;entryDx=0;entryDy=0;" edge="1" parent="WIyWlLk6GJQsqaUBKTNV-1" source="evPstTmDy4JiKZD8_PfO-34" target="evPstTmDy4JiKZD8_PfO-5">
          <mxGeometry relative="1" as="geometry">
            <Array as="points">
              <mxPoint x="210" y="475" />
              <mxPoint x="210" y="245" />
            </Array>
          </mxGeometry>
        </mxCell>
        <mxCell id="evPstTmDy4JiKZD8_PfO-58" style="edgeStyle=orthogonalEdgeStyle;rounded=0;orthogonalLoop=1;jettySize=auto;html=1;" edge="1" parent="WIyWlLk6GJQsqaUBKTNV-1" source="evPstTmDy4JiKZD8_PfO-52">
          <mxGeometry relative="1" as="geometry">
            <mxPoint x="180" y="360" as="targetPoint" />
            <Array as="points">
              <mxPoint x="410" y="475" />
              <mxPoint x="410" y="380" />
              <mxPoint x="190" y="380" />
              <mxPoint x="190" y="360" />
            </Array>
          </mxGeometry>
        </mxCell>
        <mxCell id="evPstTmDy4JiKZD8_PfO-59" style="edgeStyle=orthogonalEdgeStyle;rounded=0;orthogonalLoop=1;jettySize=auto;html=1;entryX=1;entryY=0.5;entryDx=0;entryDy=0;" edge="1" parent="WIyWlLk6GJQsqaUBKTNV-1" source="evPstTmDy4JiKZD8_PfO-44" target="evPstTmDy4JiKZD8_PfO-28">
          <mxGeometry relative="1" as="geometry" />
        </mxCell>
        <mxCell id="evPstTmDy4JiKZD8_PfO-60" style="edgeStyle=orthogonalEdgeStyle;rounded=0;orthogonalLoop=1;jettySize=auto;html=1;entryX=1.023;entryY=0.662;entryDx=0;entryDy=0;entryPerimeter=0;" edge="1" parent="WIyWlLk6GJQsqaUBKTNV-1" source="evPstTmDy4JiKZD8_PfO-45" target="evPstTmDy4JiKZD8_PfO-1">
          <mxGeometry relative="1" as="geometry">
            <Array as="points">
              <mxPoint x="460" y="355" />
              <mxPoint x="460" y="60" />
              <mxPoint x="250" y="60" />
              <mxPoint x="250" y="120" />
            </Array>
          </mxGeometry>
        </mxCell>
        <mxCell id="evPstTmDy4JiKZD8_PfO-61" style="edgeStyle=orthogonalEdgeStyle;rounded=0;orthogonalLoop=1;jettySize=auto;html=1;entryX=1;entryY=0.5;entryDx=0;entryDy=0;" edge="1" parent="WIyWlLk6GJQsqaUBKTNV-1" source="evPstTmDy4JiKZD8_PfO-47" target="evPstTmDy4JiKZD8_PfO-38">
          <mxGeometry relative="1" as="geometry" />
        </mxCell>
        <mxCell id="evPstTmDy4JiKZD8_PfO-62" style="edgeStyle=orthogonalEdgeStyle;rounded=0;orthogonalLoop=1;jettySize=auto;html=1;" edge="1" parent="WIyWlLk6GJQsqaUBKTNV-1" source="evPstTmDy4JiKZD8_PfO-48" target="evPstTmDy4JiKZD8_PfO-43">
          <mxGeometry relative="1" as="geometry">
            <Array as="points">
              <mxPoint x="650" y="145" />
              <mxPoint x="650" y="295" />
            </Array>
          </mxGeometry>
        </mxCell>
        <mxCell id="evPstTmDy4JiKZD8_PfO-63" style="edgeStyle=orthogonalEdgeStyle;rounded=0;orthogonalLoop=1;jettySize=auto;html=1;entryX=0;entryY=0.25;entryDx=0;entryDy=0;" edge="1" parent="WIyWlLk6GJQsqaUBKTNV-1" source="evPstTmDy4JiKZD8_PfO-51" target="evPstTmDy4JiKZD8_PfO-40">
          <mxGeometry relative="1" as="geometry">
            <Array as="points">
              <mxPoint x="450" y="445" />
              <mxPoint x="450" y="198" />
            </Array>
          </mxGeometry>
        </mxCell>
        <mxCell id="evPstTmDy4JiKZD8_PfO-64" style="edgeStyle=orthogonalEdgeStyle;rounded=0;orthogonalLoop=1;jettySize=auto;html=1;exitX=1;exitY=0.5;exitDx=0;exitDy=0;" edge="1" parent="WIyWlLk6GJQsqaUBKTNV-1" source="evPstTmDy4JiKZD8_PfO-33" target="evPstTmDy4JiKZD8_PfO-37">
          <mxGeometry relative="1" as="geometry">
            <Array as="points">
              <mxPoint x="430" y="445" />
              <mxPoint x="430" y="115" />
            </Array>
          </mxGeometry>
        </mxCell>
        <mxCell id="evPstTmDy4JiKZD8_PfO-65" style="edgeStyle=orthogonalEdgeStyle;rounded=0;orthogonalLoop=1;jettySize=auto;html=1;entryX=0;entryY=0.5;entryDx=0;entryDy=0;" edge="1" parent="WIyWlLk6GJQsqaUBKTNV-1" source="evPstTmDy4JiKZD8_PfO-14" target="evPstTmDy4JiKZD8_PfO-39">
          <mxGeometry relative="1" as="geometry">
            <Array as="points">
              <mxPoint x="240" y="365" />
              <mxPoint x="240" y="240" />
              <mxPoint x="440" y="240" />
              <mxPoint x="440" y="175" />
            </Array>
          </mxGeometry>
        </mxCell>
      </root>
    </mxGraphModel>
  </diagram>
</mxfile>
